# xmcd CD database file
#
# Track frame offsets:
#	150
#	43536
#	85646
#	132515
#	164016
#	203303
#	236864
#
# Disc length: 3643 seconds
#
# Revision: 0
# Processed by: cddbd v1.5.2PL0 Copyright (c) Steve Scherf et al.
# Submitted via: CDex 1.70beta2
#
DISCID=560e3907
DTITLE=Various Artist - Feen und Elfen Musik
DYEAR=2007
DGENRE=New Age
TTITLE0=Seaside Walk
TTITLE1=Journey Beyond The Rainbow
TTITLE2=Magic Mind
TTITLE3=Nighttime
TTITLE4=Somewhere
TTITLE5=Long Distance
TTITLE6=September Wind
EXTD=YEAR: 2007
EXTT0=
EXTT1=
EXTT2=
EXTT3=
EXTT4=
EXTT5=
EXTT6=
PLAYORDER=
